<?xml version="1.0" encoding="UTF-8" standalone="no"?>
<!DOCTYPE svg PUBLIC "-//W3C//DTD SVG 1.1//EN"
 "http://www.w3.org/Graphics/SVG/1.1/DTD/svg11.dtd">
<!-- Generated by graphviz version 2.43.0 (0)
 -->
<!-- Title: architecture Pages: 1 -->
<svg width="1887pt" height="541pt"
 viewBox="0.00 0.00 1887.00 541.00" xmlns="http://www.w3.org/2000/svg" xmlns:xlink="http://www.w3.org/1999/xlink">
<g id="graph0" class="graph" transform="scale(1 1) rotate(0) translate(4 537)">
<title>architecture</title>
<polygon fill="white" stroke="transparent" points="-4,4 -4,-537 1883,-537 1883,4 -4,4"/>
<g id="clust1" class="cluster">
<title>cluster_high</title>
<path fill="none" stroke="#b0b0b0" d="M20,-365C20,-365 1325.5,-365 1325.5,-365 1331.5,-365 1337.5,-371 1337.5,-377 1337.5,-377 1337.5,-513 1337.5,-513 1337.5,-519 1331.5,-525 1325.5,-525 1325.5,-525 20,-525 20,-525 14,-525 8,-519 8,-513 8,-513 8,-377 8,-377 8,-371 14,-365 20,-365"/>
<text text-anchor="middle" x="672.75" y="-511.4" font-family="Inter" font-size="12.00">High&#45;level pipeline</text>
</g>
<g id="clust2" class="cluster">
<title>cluster_rl</title>
<path fill="none" stroke="#b0b0b0" d="M454,-8C454,-8 1859,-8 1859,-8 1865,-8 1871,-14 1871,-20 1871,-20 1871,-345 1871,-345 1871,-351 1865,-357 1859,-357 1859,-357 454,-357 454,-357 448,-357 442,-351 442,-345 442,-345 442,-20 442,-20 442,-14 448,-8 454,-8"/>
<text text-anchor="middle" x="1156.5" y="-343.4" font-family="Inter" font-size="12.00">MTRL — General RL Solver (RL Environment)</text>
</g>
<!-- pde -->
<g id="node1" class="node">
<title>pde</title>
<path fill="#f8f8f8" stroke="#2b2b2b" d="M58,-409C58,-409 28,-409 28,-409 22,-409 16,-403 16,-397 16,-397 16,-385 16,-385 16,-379 22,-373 28,-373 28,-373 58,-373 58,-373 64,-373 70,-379 70,-385 70,-385 70,-397 70,-397 70,-403 64,-409 58,-409"/>
<text text-anchor="middle" x="43" y="-388.2" font-family="Inter" font-size="11.00">PDE</text>
</g>
<!-- rl_env_top -->
<g id="node2" class="node">
<title>rl_env_top</title>
<path fill="#f8f8f8" stroke="#2b2b2b" d="M248,-409C248,-409 191,-409 191,-409 185,-409 179,-403 179,-397 179,-397 179,-385 179,-385 179,-379 185,-373 191,-373 191,-373 248,-373 248,-373 254,-373 260,-379 260,-385 260,-385 260,-397 260,-397 260,-403 254,-409 248,-409"/>
<text text-anchor="middle" x="219.5" y="-394.2" font-family="Inter" font-size="11.00">RL Env</text>
<text text-anchor="middle" x="219.5" y="-382.2" font-family="Inter" font-size="11.00">(PDE Solver)</text>
</g>
<!-- pde&#45;&gt;rl_env_top -->
<g id="edge1" class="edge">
<title>pde&#45;&gt;rl_env_top</title>
<path fill="none" stroke="#2b2b2b" stroke-width="1.2" d="M70.19,-391C70.19,-391 170.82,-391 170.82,-391"/>
<polygon fill="#2b2b2b" stroke="#2b2b2b" stroke-width="1.2" points="170.82,-393.8 178.82,-391 170.82,-388.2 170.82,-393.8"/>
</g>
<!-- sol -->
<g id="node3" class="node">
<title>sol</title>
<path fill="#f8f8f8" stroke="#2b2b2b" d="M611,-409C611,-409 538,-409 538,-409 532,-409 526,-403 526,-397 526,-397 526,-385 526,-385 526,-379 532,-373 538,-373 538,-373 611,-373 611,-373 617,-373 623,-379 623,-385 623,-385 623,-397 623,-397 623,-403 617,-409 611,-409"/>
<text text-anchor="middle" x="574.5" y="-388.2" font-family="Inter" font-size="11.00">Solution of PDE</text>
</g>
<!-- rl_env_top&#45;&gt;sol -->
<g id="edge2" class="edge">
<title>rl_env_top&#45;&gt;sol</title>
<path fill="none" stroke="#2b2b2b" stroke-width="1.2" d="M260.22,-397C260.22,-397 517.77,-397 517.77,-397"/>
<polygon fill="#2b2b2b" stroke="#2b2b2b" stroke-width="1.2" points="517.77,-399.8 525.77,-397 517.77,-394.2 517.77,-399.8"/>
</g>
<!-- eqn -->
<g id="node8" class="node">
<title>eqn</title>
<path fill="white" stroke="#2b2b2b" d="M655,-328C655,-328 494,-328 494,-328 488,-328 482,-322 482,-316 482,-316 482,-304 482,-304 482,-298 488,-292 494,-292 494,-292 655,-292 655,-292 661,-292 667,-298 667,-304 667,-304 667,-316 667,-316 667,-322 661,-328 655,-328"/>
<text text-anchor="middle" x="574.5" y="-313.2" font-family="Inter" font-size="11.00">Inputs</text>
<text text-anchor="middle" x="574.5" y="-301.2" font-family="Inter" font-size="11.00">Equations / system of equations</text>
</g>
<!-- rl_env_top&#45;&gt;eqn -->
<g id="edge19" class="edge">
<title>rl_env_top&#45;&gt;eqn</title>
<path fill="none" stroke="#2b2b2b" stroke-width="1.2" stroke-dasharray="1,5" d="M260.26,-385C338.93,-385 504,-385 504,-385 504,-385 504,-336.16 504,-336.16"/>
<polygon fill="#2b2b2b" stroke="#2b2b2b" stroke-width="1.2" points="506.8,-336.16 504,-328.16 501.2,-336.16 506.8,-336.16"/>
<text text-anchor="middle" x="380" y="-345" font-family="Inter" font-size="10.00">shares/uses PDE</text>
</g>
<!-- reg -->
<g id="node4" class="node">
<title>reg</title>
<path fill="#f8f8f8" stroke="#2b2b2b" d="M1043,-431C1043,-431 859,-431 859,-431 853,-431 847,-425 847,-419 847,-419 847,-407 847,-407 847,-401 853,-395 859,-395 859,-395 1043,-395 1043,-395 1049,-395 1055,-401 1055,-407 1055,-407 1055,-419 1055,-419 1055,-425 1049,-431 1043,-431"/>
<text text-anchor="middle" x="951" y="-416.2" font-family="Inter" font-size="11.00">Regression algorithm</text>
<text text-anchor="middle" x="951" y="-404.2" font-family="Inter" font-size="11.00">Predicting SOH / Battery degradation</text>
</g>
<!-- sol&#45;&gt;reg -->
<g id="edge3" class="edge">
<title>sol&#45;&gt;reg</title>
<path fill="none" stroke="#2b2b2b" stroke-width="1.2" d="M623.33,-402C623.33,-402 838.78,-402 838.78,-402"/>
<polygon fill="#2b2b2b" stroke="#2b2b2b" stroke-width="1.2" points="838.78,-404.8 846.78,-402 838.78,-399.2 838.78,-404.8"/>
</g>
<!-- final -->
<g id="node5" class="node">
<title>final</title>
<path fill="#f8f8f8" stroke="#2b2b2b" d="M1317.5,-431C1317.5,-431 1263.5,-431 1263.5,-431 1257.5,-431 1251.5,-425 1251.5,-419 1251.5,-419 1251.5,-407 1251.5,-407 1251.5,-401 1257.5,-395 1263.5,-395 1263.5,-395 1317.5,-395 1317.5,-395 1323.5,-395 1329.5,-401 1329.5,-407 1329.5,-407 1329.5,-419 1329.5,-419 1329.5,-425 1323.5,-431 1317.5,-431"/>
<text text-anchor="middle" x="1290.5" y="-410.2" font-family="Inter" font-size="11.00">Final output</text>
</g>
<!-- reg&#45;&gt;final -->
<g id="edge6" class="edge">
<title>reg&#45;&gt;final</title>
<path fill="none" stroke="#2b2b2b" stroke-width="1.2" d="M1055.17,-413C1055.17,-413 1243.11,-413 1243.11,-413"/>
<polygon fill="#2b2b2b" stroke="#2b2b2b" stroke-width="1.2" points="1243.11,-415.8 1251.11,-413 1243.11,-410.2 1243.11,-415.8"/>
</g>
<!-- dataset -->
<g id="node6" class="node">
<title>dataset</title>
<path fill="#f8f8f8" stroke="#2b2b2b" d="M298,-496C298,-496 141,-496 141,-496 135,-496 129,-490 129,-484 129,-484 129,-464 129,-464 129,-458 135,-452 141,-452 141,-452 298,-452 298,-452 304,-452 310,-458 310,-464 310,-464 310,-484 310,-484 310,-490 304,-496 298,-496"/>
<text text-anchor="middle" x="219.5" y="-483.2" font-family="Inter" font-size="11.00">Dataset</text>
<text text-anchor="middle" x="219.5" y="-471.2" font-family="Inter" font-size="11.00">(temperature, charging periods,</text>
<text text-anchor="middle" x="219.5" y="-459.2" font-family="Inter" font-size="11.00">charging cycles, …)</text>
</g>
<!-- lstm -->
<g id="node7" class="node">
<title>lstm</title>
<path fill="#f8f8f8" stroke="#2b2b2b" d="M611,-490C611,-490 538,-490 538,-490 532,-490 526,-484 526,-478 526,-478 526,-466 526,-466 526,-460 532,-454 538,-454 538,-454 611,-454 611,-454 617,-454 623,-460 623,-466 623,-466 623,-478 623,-478 623,-484 617,-490 611,-490"/>
<text text-anchor="middle" x="574.5" y="-469.2" font-family="Inter" font-size="11.00">LSTM / Training</text>
</g>
<!-- dataset&#45;&gt;lstm -->
<g id="edge4" class="edge">
<title>dataset&#45;&gt;lstm</title>
<path fill="none" stroke="#2b2b2b" stroke-width="1.2" d="M310,-472C310,-472 517.7,-472 517.7,-472"/>
<polygon fill="#2b2b2b" stroke="#2b2b2b" stroke-width="1.2" points="517.7,-474.8 525.7,-472 517.7,-469.2 517.7,-474.8"/>
</g>
<!-- lstm&#45;&gt;reg -->
<g id="edge5" class="edge">
<title>lstm&#45;&gt;reg</title>
<path fill="none" stroke="#2b2b2b" stroke-width="1.2" d="M575,-453.81C575,-438.82 575,-420 575,-420 575,-420 838.76,-420 838.76,-420"/>
<polygon fill="#2b2b2b" stroke="#2b2b2b" stroke-width="1.2" points="838.76,-422.8 846.76,-420 838.76,-417.2 838.76,-422.8"/>
</g>
<!-- pinn -->
<g id="node9" class="node">
<title>pinn</title>
<path fill="white" stroke="#2b2b2b" d="M980.5,-207C980.5,-207 921.5,-207 921.5,-207 915.5,-207 909.5,-201 909.5,-195 909.5,-195 909.5,-183 909.5,-183 909.5,-177 915.5,-171 921.5,-171 921.5,-171 980.5,-171 980.5,-171 986.5,-171 992.5,-177 992.5,-183 992.5,-183 992.5,-195 992.5,-195 992.5,-201 986.5,-207 980.5,-207"/>
<text text-anchor="middle" x="951" y="-192.2" font-family="Inter" font-size="11.00">PINN solver</text>
<text text-anchor="middle" x="951" y="-180.2" font-family="Inter" font-size="11.00">(initialization)</text>
</g>
<!-- eqn&#45;&gt;pinn -->
<g id="edge7" class="edge">
<title>eqn&#45;&gt;pinn</title>
<path fill="none" stroke="#2b2b2b" stroke-width="1.2" d="M653,-291.89C653,-258.13 653,-189 653,-189 653,-189 901.25,-189 901.25,-189"/>
<polygon fill="#2b2b2b" stroke="#2b2b2b" stroke-width="1.2" points="901.25,-191.8 909.25,-189 901.25,-186.2 901.25,-191.8"/>
</g>
<!-- agent -->
<g id="node11" class="node">
<title>agent</title>
<path fill="white" stroke="#2b2b2b" d="M1568,-176C1568,-176 1530,-176 1530,-176 1524,-176 1518,-170 1518,-164 1518,-164 1518,-152 1518,-152 1518,-146 1524,-140 1530,-140 1530,-140 1568,-140 1568,-140 1574,-140 1580,-146 1580,-152 1580,-152 1580,-164 1580,-164 1580,-170 1574,-176 1568,-176"/>
<text text-anchor="middle" x="1549" y="-155.2" font-family="Inter" font-size="11.00">RL agent</text>
</g>
<!-- eqn&#45;&gt;agent -->
<g id="edge10" class="edge">
<title>eqn&#45;&gt;agent</title>
<path fill="none" stroke="#2b2b2b" stroke-width="1.2" stroke-dasharray="5,2" d="M638,-291.73C638,-251.94 638,-161 638,-161 638,-161 1509.9,-161 1509.9,-161"/>
<polygon fill="#2b2b2b" stroke="#2b2b2b" stroke-width="1.2" points="1509.9,-163.8 1517.9,-161 1509.9,-158.2 1509.9,-163.8"/>
<text text-anchor="middle" x="1119" y="-320" font-family="Inter" font-size="10.00">state/features</text>
</g>
<!-- loss -->
<g id="node10" class="node">
<title>loss</title>
<path fill="white" stroke="#2b2b2b" d="M1327.5,-139C1327.5,-139 1253.5,-139 1253.5,-139 1247.5,-139 1241.5,-133 1241.5,-127 1241.5,-127 1241.5,-115 1241.5,-115 1241.5,-109 1247.5,-103 1253.5,-103 1253.5,-103 1327.5,-103 1327.5,-103 1333.5,-103 1339.5,-109 1339.5,-115 1339.5,-115 1339.5,-127 1339.5,-127 1339.5,-133 1333.5,-139 1327.5,-139"/>
<text text-anchor="middle" x="1290.5" y="-124.2" font-family="Inter" font-size="11.00">Outputs</text>
<text text-anchor="middle" x="1290.5" y="-112.2" font-family="Inter" font-size="11.00">Loss / residuals</text>
</g>
<!-- pinn&#45;&gt;loss -->
<g id="edge8" class="edge">
<title>pinn&#45;&gt;loss</title>
<path fill="none" stroke="#2b2b2b" stroke-width="1.2" d="M965,-170.97C965,-153.94 965,-131 965,-131 965,-131 1233.42,-131 1233.42,-131"/>
<polygon fill="#2b2b2b" stroke="#2b2b2b" stroke-width="1.2" points="1233.42,-133.8 1241.42,-131 1233.42,-128.2 1233.42,-133.8"/>
</g>
<!-- episode_loop -->
<g id="node13" class="node">
<title>episode_loop</title>
<path fill="#f8f8f8" stroke="#2b2b2b" d="M1386,-238C1386,-238 1195,-238 1195,-238 1189,-238 1183,-232 1183,-226 1183,-226 1183,-194 1183,-194 1183,-188 1189,-182 1195,-182 1195,-182 1386,-182 1386,-182 1392,-182 1398,-188 1398,-194 1398,-194 1398,-226 1398,-226 1398,-232 1392,-238 1386,-238"/>
<text text-anchor="middle" x="1290.5" y="-225.2" font-family="Inter" font-size="11.00">Episode loop</text>
<text text-anchor="middle" x="1290.5" y="-213.2" font-family="Inter" font-size="11.00">Run PINN steps → every n steps:</text>
<text text-anchor="middle" x="1290.5" y="-201.2" font-family="Inter" font-size="11.00">compute residuals → RL agent update</text>
<text text-anchor="middle" x="1290.5" y="-189.2" font-family="Inter" font-size="11.00">→ update λ / optimizer params</text>
</g>
<!-- pinn&#45;&gt;episode_loop -->
<g id="edge14" class="edge">
<title>pinn&#45;&gt;episode_loop</title>
<path fill="none" stroke="#2b2b2b" stroke-width="1.2" stroke-dasharray="5,2" d="M992.63,-190.33C992.63,-190.33 1174.91,-190.33 1174.91,-190.33"/>
<polygon fill="#2b2b2b" stroke="#2b2b2b" stroke-width="1.2" points="1174.91,-193.13 1182.91,-190.33 1174.91,-187.53 1174.91,-193.13"/>
<text text-anchor="middle" x="1119" y="-184" font-family="Inter" font-size="10.00">steps</text>
</g>
<!-- loss&#45;&gt;agent -->
<g id="edge9" class="edge">
<title>loss&#45;&gt;agent</title>
<path fill="none" stroke="#2b2b2b" stroke-width="1.2" d="M1339.73,-134.5C1414.73,-134.5 1549,-134.5 1549,-134.5 1549,-134.5 1549,-135.05 1549,-135.05"/>
<polygon fill="#2b2b2b" stroke="#2b2b2b" stroke-width="1.2" points="1546.2,-131.95 1549,-139.95 1551.8,-131.95 1546.2,-131.95"/>
</g>
<!-- actions -->
<g id="node12" class="node">
<title>actions</title>
<path fill="white" stroke="#2b2b2b" d="M1851,-186C1851,-186 1717,-186 1717,-186 1711,-186 1705,-180 1705,-174 1705,-174 1705,-142 1705,-142 1705,-136 1711,-130 1717,-130 1717,-130 1851,-130 1851,-130 1857,-130 1863,-136 1863,-142 1863,-142 1863,-174 1863,-174 1863,-180 1857,-186 1851,-186"/>
<text text-anchor="middle" x="1784" y="-173.2" font-family="Inter" font-size="11.00">To be explored (actions)</text>
<text text-anchor="middle" x="1784" y="-161.2" font-family="Inter" font-size="11.00">• λ parameter per equation</text>
<text text-anchor="middle" x="1784" y="-149.2" font-family="Inter" font-size="11.00">• Adam hyperparameters:</text>
<text text-anchor="middle" x="1784" y="-137.2" font-family="Inter" font-size="11.00"> &#160;learning rate, β₁, β₂</text>
</g>
<!-- agent&#45;&gt;actions -->
<g id="edge11" class="edge">
<title>agent&#45;&gt;actions</title>
<path fill="none" stroke="#2b2b2b" stroke-width="1.2" d="M1580.21,-158C1580.21,-158 1696.81,-158 1696.81,-158"/>
<polygon fill="#2b2b2b" stroke="#2b2b2b" stroke-width="1.2" points="1696.81,-160.8 1704.81,-158 1696.81,-155.2 1696.81,-160.8"/>
<text text-anchor="middle" x="1642.5" y="-161" font-family="Inter" font-size="10.00">select/update</text>
</g>
<!-- actions&#45;&gt;pinn -->
<g id="edge12" class="edge">
<title>actions&#45;&gt;pinn</title>
<path fill="none" stroke="#2b2b2b" stroke-width="1.2" d="M1785,-129.8C1785,-111.67 1785,-91.5 1785,-91.5 1785,-91.5 938,-91.5 938,-91.5 938,-91.5 938,-162.66 938,-162.66"/>
<polygon fill="#2b2b2b" stroke="#2b2b2b" stroke-width="1.2" points="935.2,-162.66 938,-170.66 940.8,-162.66 935.2,-162.66"/>
<text text-anchor="middle" x="1458" y="-274" font-family="Inter" font-size="10.00">apply</text>
</g>
<!-- episode_loop&#45;&gt;pinn -->
<g id="edge13" class="edge">
<title>episode_loop&#45;&gt;pinn</title>
<path fill="none" stroke="#2b2b2b" stroke-width="1.2" stroke-dasharray="5,2" d="M1182.61,-198.67C1182.61,-198.67 1000.85,-198.67 1000.85,-198.67"/>
<polygon fill="#2b2b2b" stroke="#2b2b2b" stroke-width="1.2" points="1000.85,-195.87 992.85,-198.67 1000.85,-201.47 1000.85,-195.87"/>
<text text-anchor="middle" x="1119" y="-250" font-family="Inter" font-size="10.00">controls</text>
</g>
<!-- workers -->
<g id="node14" class="node">
<title>workers</title>
<path fill="#f8f8f8" stroke="#2b2b2b" d="M611.5,-151C611.5,-151 537.5,-151 537.5,-151 531.5,-151 525.5,-145 525.5,-139 525.5,-139 525.5,-127 525.5,-127 525.5,-121 531.5,-115 537.5,-115 537.5,-115 611.5,-115 611.5,-115 617.5,-115 623.5,-121 623.5,-127 623.5,-127 623.5,-139 623.5,-139 623.5,-145 617.5,-151 611.5,-151"/>
<text text-anchor="middle" x="574.5" y="-130.2" font-family="Inter" font-size="11.00">Parallel workers</text>
</g>
<!-- memory -->
<g id="node15" class="node">
<title>memory</title>
<path fill="#f8f8f8" stroke="#2b2b2b" d="M1010.5,-80C1010.5,-80 891.5,-80 891.5,-80 885.5,-80 879.5,-74 879.5,-68 879.5,-68 879.5,-56 879.5,-56 879.5,-50 885.5,-44 891.5,-44 891.5,-44 1010.5,-44 1010.5,-44 1016.5,-44 1022.5,-50 1022.5,-56 1022.5,-56 1022.5,-68 1022.5,-68 1022.5,-74 1016.5,-80 1010.5,-80"/>
<text text-anchor="middle" x="951" y="-65.2" font-family="Inter" font-size="11.00">Replay memory</text>
<text text-anchor="middle" x="951" y="-53.2" font-family="Inter" font-size="11.00">(capacity: 50k episodes)</text>
</g>
<!-- workers&#45;&gt;memory -->
<g id="edge15" class="edge">
<title>workers&#45;&gt;memory</title>
<path fill="none" stroke="#2b2b2b" stroke-width="1.2" d="M623.53,-123C713.31,-123 895,-123 895,-123 895,-123 895,-88.3 895,-88.3"/>
<polygon fill="#2b2b2b" stroke="#2b2b2b" stroke-width="1.2" points="897.8,-88.3 895,-80.3 892.2,-88.3 897.8,-88.3"/>
<text text-anchor="middle" x="773" y="-129" font-family="Inter" font-size="10.00">generate episodes</text>
</g>
<!-- training -->
<g id="node17" class="node">
<title>training</title>
<path fill="#f8f8f8" stroke="#2b2b2b" d="M1375.5,-60C1375.5,-60 1205.5,-60 1205.5,-60 1199.5,-60 1193.5,-54 1193.5,-48 1193.5,-48 1193.5,-28 1193.5,-28 1193.5,-22 1199.5,-16 1205.5,-16 1205.5,-16 1375.5,-16 1375.5,-16 1381.5,-16 1387.5,-22 1387.5,-28 1387.5,-28 1387.5,-48 1387.5,-48 1387.5,-54 1381.5,-60 1375.5,-60"/>
<text text-anchor="middle" x="1290.5" y="-47.2" font-family="Inter" font-size="11.00">Training phase</text>
<text text-anchor="middle" x="1290.5" y="-35.2" font-family="Inter" font-size="11.00">Step 1: populate memory</text>
<text text-anchor="middle" x="1290.5" y="-23.2" font-family="Inter" font-size="11.00">Step 2: RL learning (policy update)</text>
</g>
<!-- memory&#45;&gt;training -->
<g id="edge16" class="edge">
<title>memory&#45;&gt;training</title>
<path fill="none" stroke="#2b2b2b" stroke-width="1.2" d="M1022.58,-52C1022.58,-52 1185.25,-52 1185.25,-52"/>
<polygon fill="#2b2b2b" stroke="#2b2b2b" stroke-width="1.2" points="1185.25,-54.8 1193.25,-52 1185.25,-49.2 1185.25,-54.8"/>
<text text-anchor="middle" x="1119" y="-64" font-family="Inter" font-size="10.00">sample</text>
</g>
<!-- schedule -->
<g id="node16" class="node">
<title>schedule</title>
<path fill="#f8f8f8" stroke="#2b2b2b" d="M687,-72C687,-72 462,-72 462,-72 456,-72 450,-66 450,-60 450,-60 450,-28 450,-28 450,-22 456,-16 462,-16 462,-16 687,-16 687,-16 693,-16 699,-22 699,-28 699,-28 699,-60 699,-60 699,-66 693,-72 687,-72"/>
<text text-anchor="middle" x="574.5" y="-59.2" font-family="Inter" font-size="11.00">Memory collection schedule</text>
<text text-anchor="middle" x="574.5" y="-47.2" font-family="Inter" font-size="11.00">Solver 1: init → batches of 32 episodes</text>
<text text-anchor="middle" x="574.5" y="-35.2" font-family="Inter" font-size="11.00">until 25k episodes</text>
<text text-anchor="middle" x="574.5" y="-23.2" font-family="Inter" font-size="11.00">Solver 2: continue until memory reaches 50k</text>
</g>
<!-- schedule&#45;&gt;memory -->
<g id="edge18" class="edge">
<title>schedule&#45;&gt;memory</title>
<path fill="none" stroke="#2b2b2b" stroke-width="1.2" d="M699.08,-58C699.08,-58 871.36,-58 871.36,-58"/>
<polygon fill="#2b2b2b" stroke="#2b2b2b" stroke-width="1.2" points="871.36,-60.8 879.36,-58 871.36,-55.2 871.36,-60.8"/>
<text text-anchor="middle" x="773" y="-66" font-family="Inter" font-size="10.00">store</text>
</g>
<!-- training&#45;&gt;agent -->
<g id="edge17" class="edge">
<title>training&#45;&gt;agent</title>
<path fill="none" stroke="#2b2b2b" stroke-width="1.2" d="M1364,-60.01C1364,-91.46 1364,-145.5 1364,-145.5 1364,-145.5 1509.62,-145.5 1509.62,-145.5"/>
<polygon fill="#2b2b2b" stroke="#2b2b2b" stroke-width="1.2" points="1509.62,-148.3 1517.62,-145.5 1509.62,-142.7 1509.62,-148.3"/>
<text text-anchor="middle" x="1458" y="-110" font-family="Inter" font-size="10.00">learn/update</text>
</g>
</g>
</svg>
